<?xml version="1.0" encoding="UTF-8"?>
<!DOCTYPE svg PUBLIC "-//W3C//DTD SVG 1.1//EN" "http://www.w3.org/Graphics/SVG/1.1/DTD/svg11.dtd">
<svg xmlns="http://www.w3.org/2000/svg" version="1.1" width="1199px" height="388px" style="shape-rendering:geometricPrecision; text-rendering:geometricPrecision; image-rendering:optimizeQuality; fill-rule:evenodd; clip-rule:evenodd" xmlns:xlink="http://www.w3.org/1999/xlink">
<g><path style="opacity:1" fill="#fefefe" d="M -0.5,-0.5 C 399.167,-0.5 798.833,-0.5 1198.5,-0.5C 1198.5,128.833 1198.5,258.167 1198.5,387.5C 798.833,387.5 399.167,387.5 -0.5,387.5C -0.5,258.167 -0.5,128.833 -0.5,-0.5 Z"/></g>
<g><path style="opacity:1" fill="#f1862d" d="M 342.5,23.5 C 360.663,24.4963 370.996,33.9963 373.5,52C 372.476,71.6796 362.309,81.8462 343,82.5C 342.383,81.5509 342.549,80.7175 343.5,80C 359.06,77.9403 367.726,69.107 369.5,53.5C 368.324,37.3969 359.658,28.5635 343.5,27C 342.663,25.9887 342.33,24.8221 342.5,23.5 Z"/></g>
<g><path style="opacity:1" fill="#f0862c" d="M 343.5,33.5 C 360.924,37.6821 366.091,48.0154 359,64.5C 354.832,69.9265 349.498,72.2599 343,71.5C 342.333,70.8333 342.333,70.1667 343,69.5C 356.586,65.9955 360.919,57.6622 356,44.5C 352.736,40.618 348.57,38.4513 343.5,38C 342.272,36.5098 342.272,35.0098 343.5,33.5 Z"/></g>
<g><path style="opacity:1" fill="#ef7c18" d="M 328.5,70.5 C 290.027,71.1489 251.694,71.8155 213.5,72.5C 216.746,80.3909 219.912,88.3909 223,96.5C 227.545,122.493 220.378,144.326 201.5,162C 194.567,165.116 189.401,163.283 186,156.5C 183.342,148.578 183.008,140.578 185,132.5C 186.093,130.028 187.76,128.028 190,126.5C 190.667,118.5 190.667,110.5 190,102.5C 187.113,100.248 185.78,97.2479 186,93.5C 185.623,92.0577 184.79,91.0577 183.5,90.5C 182.081,89.5489 180.415,89.2155 178.5,89.5C 178.5,99.1667 178.5,108.833 178.5,118.5C 178.667,181.834 178.5,245.168 178,308.5C 175.388,321.557 167.555,326.724 154.5,324C 148.508,321.341 144.675,316.841 143,310.5C 142.5,241.834 142.333,173.167 142.5,104.5C 140.833,104.5 139.167,104.5 137.5,104.5C 137.5,108.833 137.5,113.167 137.5,117.5C 131.075,117.87 124.742,117.37 118.5,116C 108.043,109.21 99.2096,100.71 92,90.5C 90.8289,89.1068 89.3289,88.2735 87.5,88C 65.1692,87.5 42.8358,87.3334 20.5,87.5C 19.5964,76.8649 19.2631,66.1982 19.5,55.5C 20.3438,52.6553 21.0104,49.6553 21.5,46.5C 23.4385,42.064 26.7719,39.2306 31.5,38C 130.167,37.3333 228.833,37.3333 327.5,38C 343.422,42.3138 346.922,51.4805 338,65.5C 335.005,67.6525 331.838,69.3192 328.5,70.5 Z"/></g>
<g><path style="opacity:1" fill="#fac89f" d="M 21.5,46.5 C 21.0104,49.6553 20.3438,52.6553 19.5,55.5C 19.3359,52.8127 19.5026,50.146 20,47.5C 20.3826,46.944 20.8826,46.6107 21.5,46.5 Z"/></g>
<g><path style="opacity:1" fill="#0a9aa3" d="M 780.5,299.5 C 781.497,278.006 781.831,256.34 781.5,234.5C 767.833,234.5 754.167,234.5 740.5,234.5C 740.5,223.833 740.5,213.167 740.5,202.5C 765.833,202.5 791.167,202.5 816.5,202.5C 816.182,241.02 816.515,279.52 817.5,318C 817.561,319.711 816.894,321.044 815.5,322C 759.931,351.044 705.598,348.71 652.5,315C 628.533,296.25 612.699,272.083 605,242.5C 595.297,209.349 596.797,176.849 609.5,145C 609.043,144.586 608.709,144.086 608.5,143.5C 609.247,143.264 610.08,142.93 611,142.5C 616.3,132.246 621.133,122.246 625.5,112.5C 630.469,110.864 633.803,107.531 635.5,102.5C 642.528,96.1401 649.861,90.1401 657.5,84.5C 658.386,83.675 658.719,82.675 658.5,81.5C 667.082,78.0963 675.082,73.5963 682.5,68C 731.996,49.2497 778.996,53.9163 823.5,82C 830.019,88.0196 836.685,93.853 843.5,99.5C 845.302,100.986 847.302,101.986 849.5,102.5C 851.281,105.044 853.114,107.711 855,110.5C 856.264,112.607 858.097,113.607 860.5,113.5C 861.167,117.5 863.5,119.833 867.5,120.5C 867.642,124.633 869.642,127.299 873.5,128.5C 874.558,137.291 870.892,140.458 862.5,138C 857.534,134.511 852.534,131.011 847.5,127.5C 847.167,128.167 846.833,128.833 846.5,129.5C 847.711,132.625 849.211,135.625 851,138.5C 852.809,143.541 851.143,145.875 846,145.5C 842.927,145.519 840.093,144.853 837.5,143.5C 837.762,142.022 837.429,140.689 836.5,139.5C 833.785,136.943 831.618,133.943 830,130.5C 829.321,137.418 825.821,139.584 819.5,137C 814.499,132.847 810.499,128.014 807.5,122.5C 807.431,124.278 807.097,126.111 806.5,128C 800.731,129.368 796.231,127.534 793,122.5C 788.897,116.437 785.397,110.104 782.5,103.5C 783.93,103.579 785.264,103.246 786.5,102.5C 788.751,104.687 791.251,105.353 794,104.5C 801.796,106.894 809.629,109.228 817.5,111.5C 818.308,111.192 818.975,110.692 819.5,110C 800.824,100.865 781.157,97.5317 760.5,100C 755.147,101.54 752.981,105.04 754,110.5C 754.908,112.439 756.408,113.439 758.5,113.5C 758.351,114.552 758.517,115.552 759,116.5C 764.667,121.5 770.333,126.5 776,131.5C 782.303,140.175 782.97,149.175 778,158.5C 774.381,161.343 771.048,161.01 768,157.5C 765.552,153.385 762.719,149.552 759.5,146C 749.343,139.419 739.01,133.086 728.5,127C 721.347,121.512 714.514,115.679 708,109.5C 707.667,109.833 707.333,110.167 707,110.5C 706.995,107.771 705.829,105.771 703.5,104.5C 666.588,117.932 645.754,144.265 641,183.5C 637.345,213.603 642.678,241.936 657,268.5C 672.042,289.346 692.542,301.513 718.5,305C 739.573,306.978 760.24,305.145 780.5,299.5 Z"/></g>
<g><path style="opacity:1" fill="#f9d0ad" d="M 328.5,70.5 C 328.082,71.2216 327.416,71.7216 326.5,72C 288.835,72.5 251.168,72.6667 213.5,72.5C 251.694,71.8155 290.027,71.1489 328.5,70.5 Z"/></g>
<g><path style="opacity:1" fill="#ef7d1b" d="M 221.5,77.5 C 230.384,77.6321 239.217,78.2988 248,79.5C 252.259,83.6742 255.259,88.6742 257,94.5C 257.679,106.858 257.346,119.191 256,131.5C 251.762,139.41 247.095,147.076 242,154.5C 235.232,161.732 227.399,163.232 218.5,159C 216.673,158.101 215.34,156.767 214.5,155C 230.928,135.402 235.095,113.235 227,88.5C 225.374,85.8723 223.374,83.539 221,81.5C 220.421,80.0715 220.588,78.7382 221.5,77.5 Z"/></g>
<g><path style="opacity:1" fill="#fbe4d0" d="M 183.5,90.5 C 182.167,90.5 180.833,90.5 179.5,90.5C 179.827,100.015 179.494,109.348 178.5,118.5C 178.5,108.833 178.5,99.1667 178.5,89.5C 180.415,89.2155 182.081,89.5489 183.5,90.5 Z"/></g>
<g><path style="opacity:1" fill="#ef7b17" d="M 306.5,123.5 C 316.174,123.792 325.841,124.292 335.5,125C 337.552,125.93 339.052,127.43 340,129.5C 361.808,193.558 384.308,257.391 407.5,321C 406.833,322.333 405.833,323.333 404.5,324C 389.568,325.617 374.568,325.951 359.5,325C 357.333,324.167 355.833,322.667 355,320.5C 352.803,310.713 350.136,301.047 347,291.5C 346.167,290.667 345.333,289.833 344.5,289C 339.667,288.833 334.833,288.667 330,288.5C 311.128,289.329 292.294,289.662 273.5,289.5C 272.667,290.5 271.833,291.5 271,292.5C 267.865,302.039 265.199,311.706 263,321.5C 261.833,322.667 260.667,323.833 259.5,325C 244.167,325.667 228.833,325.667 213.5,325C 212.643,324.311 211.977,323.478 211.5,322.5C 234.212,258.398 256.378,194.065 278,129.5C 278.707,127.919 279.54,126.419 280.5,125C 289.343,124.83 298.01,124.33 306.5,123.5 Z"/></g>
<g><path style="opacity:1" fill="#ef7b17" d="M 432.5,123.5 C 457.495,124.4 482.495,124.567 507.5,124C 532.463,123.736 552.63,133.236 568,152.5C 573.889,160.495 577.222,169.495 578,179.5C 583.201,221.614 565.368,248.114 524.5,259C 520.205,259.912 515.872,260.579 511.5,261C 498.461,261.123 485.461,261.29 472.5,261.5C 472.48,281.458 472.313,301.458 472,321.5C 470.442,323.768 468.276,324.934 465.5,325C 453.5,325.667 441.5,325.667 429.5,325C 427.069,324.705 425.236,323.538 424,321.5C 423.333,257.167 423.333,192.833 424,128.5C 426.398,125.892 429.231,124.225 432.5,123.5 Z"/></g>
<g><path style="opacity:1" fill="#a2a2a2" d="M 949.5,132.5 C 950.833,132.5 952.167,132.5 953.5,132.5C 953.334,137.511 953.501,142.511 954,147.5C 956.391,144.403 959.224,142.237 962.5,141C 963.451,141.718 963.617,142.551 963,143.5C 960.54,144.958 958.373,146.791 956.5,149C 959.551,151.714 962.218,154.714 964.5,158C 964.15,159.257 963.483,159.591 962.5,159C 959.328,156.994 956.662,154.494 954.5,151.5C 953.52,154.086 953.187,156.753 953.5,159.5C 952.167,159.5 950.833,159.5 949.5,159.5C 949.5,150.5 949.5,141.5 949.5,132.5 Z"/></g>
<g><path style="opacity:1" fill="#a1a1a1" d="M 1130.5,132.5 C 1131.83,132.5 1133.17,132.5 1134.5,132.5C 1134.67,138.842 1134.5,145.175 1134,151.5C 1132.99,152.337 1131.82,152.67 1130.5,152.5C 1130.5,145.833 1130.5,139.167 1130.5,132.5 Z"/></g>
<g><path style="opacity:1" fill="#c7c7c7" d="M 902.5,134.5 C 900.833,134.5 899.167,134.5 897.5,134.5C 897.5,142.833 897.5,151.167 897.5,159.5C 896.507,151.016 896.174,142.349 896.5,133.5C 898.735,133.205 900.735,133.539 902.5,134.5 Z"/></g>
<g><path style="opacity:1" fill="#9c9c9c" d="M 902.5,134.5 C 904.654,139.479 906.821,144.479 909,149.5C 911.477,144.549 913.643,139.549 915.5,134.5C 917.167,134.5 918.833,134.5 920.5,134.5C 920.5,142.833 920.5,151.167 920.5,159.5C 919.5,159.5 918.5,159.5 917.5,159.5C 917.666,153.491 917.499,147.491 917,141.5C 914.109,145.003 912.276,149.003 911.5,153.5C 909.833,153.5 908.167,153.5 906.5,153.5C 905.237,148.968 903.403,144.635 901,140.5C 900.5,146.825 900.334,153.158 900.5,159.5C 899.5,159.5 898.5,159.5 897.5,159.5C 897.5,151.167 897.5,142.833 897.5,134.5C 899.167,134.5 900.833,134.5 902.5,134.5 Z"/></g>
<g><path style="opacity:1" fill="#c6c6c6" d="M 915.5,134.5 C 917.265,133.539 919.265,133.205 921.5,133.5C 921.826,142.349 921.493,151.016 920.5,159.5C 920.5,151.167 920.5,142.833 920.5,134.5C 918.833,134.5 917.167,134.5 915.5,134.5 Z"/></g>
<g><path style="opacity:1" fill="#979797" d="M 999.5,134.5 C 1000.5,134.5 1001.5,134.5 1002.5,134.5C 1002.5,142.833 1002.5,151.167 1002.5,159.5C 1001.5,159.5 1000.5,159.5 999.5,159.5C 999.5,151.167 999.5,142.833 999.5,134.5 Z"/></g>
<g><path style="opacity:1" fill="#c6c6c6" d="M 999.5,134.5 C 1000.57,133.566 1001.9,133.232 1003.5,133.5C 1003.83,142.349 1003.49,151.016 1002.5,159.5C 1002.5,151.167 1002.5,142.833 1002.5,134.5C 1001.5,134.5 1000.5,134.5 999.5,134.5 Z"/></g>
<g><path style="opacity:1" fill="#9d9d9d" d="M 1032.5,134.5 C 1033.55,134.351 1034.55,134.517 1035.5,135C 1038.06,138.628 1040.72,142.128 1043.5,145.5C 1045.96,142.086 1048.29,138.586 1050.5,135C 1051.72,134.437 1052.72,134.77 1053.5,136C 1050.79,140.584 1047.96,145.084 1045,149.5C 1044.5,152.817 1044.33,156.15 1044.5,159.5C 1043.5,159.5 1042.5,159.5 1041.5,159.5C 1041.67,156.15 1041.5,152.817 1041,149.5C 1037.63,144.749 1034.79,139.749 1032.5,134.5 Z"/></g>
<g><path style="opacity:1" fill="#a1a1a1" d="M 1010.5,135.5 C 1011.5,135.5 1012.5,135.5 1013.5,135.5C 1013.5,137.5 1013.5,139.5 1013.5,141.5C 1015.17,141.5 1016.83,141.5 1018.5,141.5C 1018.5,142.5 1018.5,143.5 1018.5,144.5C 1016.83,144.5 1015.17,144.5 1013.5,144.5C 1013.33,148.182 1013.5,151.848 1014,155.5C 1016.04,156.423 1018.21,156.756 1020.5,156.5C 1020.5,157.5 1020.5,158.5 1020.5,159.5C 1018.8,159.62 1017.13,159.954 1015.5,160.5C 1013.97,160.471 1012.8,159.804 1012,158.5C 1010.62,153.964 1010.12,149.297 1010.5,144.5C 1009.17,144.5 1007.83,144.5 1006.5,144.5C 1006.5,143.5 1006.5,142.5 1006.5,141.5C 1007.83,141.5 1009.17,141.5 1010.5,141.5C 1010.5,139.5 1010.5,137.5 1010.5,135.5 Z"/></g>
<g><path style="opacity:1" fill="#a2a2a2" d="M 1076.5,140.5 C 1077.5,140.5 1078.5,140.5 1079.5,140.5C 1079.33,145.179 1079.5,149.845 1080,154.5C 1082.38,156.744 1085.04,157.077 1088,155.5C 1088.5,150.511 1088.67,145.511 1088.5,140.5C 1089.83,140.5 1091.17,140.5 1092.5,140.5C 1092.21,146.561 1092.54,152.561 1093.5,158.5C 1093,158.833 1092.5,159.167 1092,159.5C 1087.31,159.42 1082.64,159.087 1078,158.5C 1076.64,152.593 1076.14,146.593 1076.5,140.5 Z"/></g>
<g><path style="opacity:1" fill="#9e9e9e" d="M 1098.5,140.5 C 1099.5,140.5 1100.5,140.5 1101.5,140.5C 1101.44,144.133 1102.44,144.3 1104.5,141C 1106.13,140.506 1107.8,140.34 1109.5,140.5C 1109.5,141.5 1109.5,142.5 1109.5,143.5C 1106.22,143.269 1103.72,144.603 1102,147.5C 1101.5,151.486 1101.33,155.486 1101.5,159.5C 1100.5,159.5 1099.5,159.5 1098.5,159.5C 1098.5,153.167 1098.5,146.833 1098.5,140.5 Z"/></g>
<g><path style="opacity:1" fill="#9f9f9f" d="M 931.5,140.5 C 935.6,141.005 939.6,141.005 943.5,140.5C 943.21,146.561 943.543,152.561 944.5,158.5C 942.956,159.622 941.623,159.289 940.5,157.5C 934.699,162.174 930.199,161.174 927,154.5C 925.19,148.519 926.69,143.852 931.5,140.5 Z"/></g>
<g><path style="opacity:1" fill="#a0a0a0" d="M 971.5,140.5 C 980.203,139.169 984.203,142.836 983.5,151.5C 979.116,151.174 974.783,151.508 970.5,152.5C 971.128,154.258 972.128,155.758 973.5,157C 976.531,157.495 979.531,157.329 982.5,156.5C 982.5,157.5 982.5,158.5 982.5,159.5C 971.205,162.285 966.038,157.952 967,146.5C 968.332,144.34 969.832,142.34 971.5,140.5 Z"/></g>
<g><path style="opacity:1" fill="#9f9f9f" d="M 1058.5,140.5 C 1069.22,139.38 1073.38,144.047 1071,154.5C 1065.29,162.483 1059.62,162.483 1054,154.5C 1052.19,148.519 1053.69,143.852 1058.5,140.5 Z"/></g>
<g><path style="opacity:1" fill="#a1a1a1" d="M 1114.5,140.5 C 1117.52,140.335 1120.52,140.502 1123.5,141C 1123.96,141.414 1124.29,141.914 1124.5,142.5C 1121.57,143.484 1118.57,143.817 1115.5,143.5C 1115.5,144.833 1115.5,146.167 1115.5,147.5C 1121.56,147.735 1124.73,150.735 1125,156.5C 1121.05,160.096 1116.55,161.096 1111.5,159.5C 1111.24,158.022 1111.57,156.689 1112.5,155.5C 1114.87,157.395 1117.53,157.895 1120.5,157C 1121.86,155.062 1121.53,153.396 1119.5,152C 1111.61,150.383 1109.94,146.55 1114.5,140.5 Z"/></g>
<g><path style="opacity:1" fill="#f8f8f8" d="M 932.5,143.5 C 934.92,143.292 937.253,143.626 939.5,144.5C 940.833,148.167 940.833,151.833 939.5,155.5C 931.162,158.209 927.995,155.209 930,146.5C 931.045,145.627 931.878,144.627 932.5,143.5 Z"/></g>
<g><path style="opacity:1" fill="#fafafa" d="M 972.5,143.5 C 977.175,142.339 979.841,144.006 980.5,148.5C 977.102,148.82 973.768,148.487 970.5,147.5C 971.18,146.14 971.847,144.807 972.5,143.5 Z"/></g>
<g><path style="opacity:1" fill="#fafafa" d="M 1059.5,143.5 C 1067.81,143.316 1070.47,147.149 1067.5,155C 1059.25,158.081 1055.75,155.248 1057,146.5C 1058.04,145.627 1058.88,144.627 1059.5,143.5 Z"/></g>
<g><path style="opacity:1" fill="#9b9b9b" d="M 1130.5,155.5 C 1131.83,155.5 1133.17,155.5 1134.5,155.5C 1134.5,156.833 1134.5,158.167 1134.5,159.5C 1133.17,159.5 1131.83,159.5 1130.5,159.5C 1130.5,158.167 1130.5,156.833 1130.5,155.5 Z"/></g>
<g><path style="opacity:1" fill="#fefefd" d="M 482.5,165.5 C 492.889,165.13 503.223,165.63 513.5,167C 522.333,169.167 527.833,174.667 530,183.5C 531.298,192.468 530.298,201.135 527,209.5C 523.857,214.497 519.357,217.664 513.5,219C 500.607,221.401 487.607,222.068 474.5,221C 474,220.5 473.5,220 473,219.5C 472.167,202.157 472.334,184.824 473.5,167.5C 476.64,166.911 479.64,166.244 482.5,165.5 Z"/></g>
<g><path style="opacity:1" fill="#fefdfc" d="M 307.5,183.5 C 310.231,185.071 312.065,187.405 313,190.5C 318.772,208.483 324.939,226.316 331.5,244C 330.556,245.477 329.223,246.477 327.5,247C 313.468,247.781 299.468,247.614 285.5,246.5C 291.84,225.095 299.173,204.095 307.5,183.5 Z"/></g>
<g><path style="opacity:1" fill="#9cd4db" d="M 884.5,185.5 C 867.5,185.5 850.5,185.5 833.5,185.5C 833.5,230.5 833.5,275.5 833.5,320.5C 832.501,275.336 832.168,230.003 832.5,184.5C 850.008,184.17 867.341,184.503 884.5,185.5 Z"/></g>
<g><path style="opacity:1" fill="#0e95a7" d="M 884.5,185.5 C 914.67,189.109 927.504,206.109 923,236.5C 920.004,249.511 912.504,258.845 900.5,264.5C 910.754,282.673 920.754,301.007 930.5,319.5C 922.862,320.497 915.196,320.831 907.5,320.5C 899.44,302.548 890.44,285.048 880.5,268C 871.173,267.5 861.839,267.334 852.5,267.5C 852.5,285.167 852.5,302.833 852.5,320.5C 846.167,320.5 839.833,320.5 833.5,320.5C 833.5,275.5 833.5,230.5 833.5,185.5C 850.5,185.5 867.5,185.5 884.5,185.5 Z"/></g>
<g><path style="opacity:1" fill="#1496a8" d="M 983.5,184.5 C 990.422,184.188 997.256,184.521 1004,185.5C 1019.94,230.504 1035.78,275.504 1051.5,320.5C 1044.91,320.811 1038.41,320.478 1032,319.5C 1028.22,307.499 1024.06,295.666 1019.5,284C 1002.16,283.167 984.824,283.334 967.5,284.5C 962.916,296.328 958.916,308.328 955.5,320.5C 948.833,320.5 942.167,320.5 935.5,320.5C 951.7,275.232 967.7,229.899 983.5,184.5 Z"/></g>
<g><path style="opacity:1" fill="#5cb7c4" d="M 1120.5,185.5 C 1103.5,185.5 1086.5,185.5 1069.5,185.5C 1069.5,230.167 1069.5,274.833 1069.5,319.5C 1091.18,319.712 1112.85,319.379 1134.5,318.5C 1133.05,319.302 1131.38,319.802 1129.5,320C 1109.17,320.5 1088.84,320.667 1068.5,320.5C 1068.5,275.167 1068.5,229.833 1068.5,184.5C 1086.01,184.17 1103.34,184.503 1120.5,185.5 Z"/></g>
<g><path style="opacity:1" fill="#0e95a6" d="M 1120.5,185.5 C 1133.84,186.813 1143.17,193.48 1148.5,205.5C 1149.32,211.797 1149.65,218.131 1149.5,224.5C 1148.64,233.562 1144.64,240.895 1137.5,246.5C 1158.36,253.881 1166.53,268.548 1162,290.5C 1158.01,304.985 1148.85,314.318 1134.5,318.5C 1112.85,319.379 1091.18,319.712 1069.5,319.5C 1069.5,274.833 1069.5,230.167 1069.5,185.5C 1086.5,185.5 1103.5,185.5 1120.5,185.5 Z"/></g>
<g><path style="opacity:1" fill="#fcfdfe" d="M 852.5,201.5 C 862.839,201.334 873.172,201.5 883.5,202C 903.003,207.171 909.17,219.337 902,238.5C 897.471,245.019 891.305,249.185 883.5,251C 873.172,251.5 862.839,251.666 852.5,251.5C 852.5,234.833 852.5,218.167 852.5,201.5 Z"/></g>
<g><path style="opacity:1" fill="#7cc6d0" d="M 1087.5,201.5 C 1087.5,214.5 1087.5,227.5 1087.5,240.5C 1096.5,240.5 1105.5,240.5 1114.5,240.5C 1105.35,241.494 1096.01,241.827 1086.5,241.5C 1086.17,227.99 1086.5,214.656 1087.5,201.5 Z"/></g>
<g><path style="opacity:1" fill="#fdfefe" d="M 1087.5,201.5 C 1096.51,201.334 1105.51,201.5 1114.5,202C 1129.82,205.11 1134.98,214.277 1130,229.5C 1127.46,236.699 1122.3,240.365 1114.5,240.5C 1105.5,240.5 1096.5,240.5 1087.5,240.5C 1087.5,227.5 1087.5,214.5 1087.5,201.5 Z"/></g>
<g><path style="opacity:1" fill="#fbfdfd" d="M 1012.5,263.5 C 1012.5,264.5 1012.5,265.5 1012.5,266.5C 999.456,267.147 986.789,266.48 974.5,264.5C 980.699,247.025 987.199,229.692 994,212.5C 1000.07,229.551 1006.24,246.551 1012.5,263.5 Z"/></g>
<g><path style="opacity:1" fill="#8accd5" d="M 1148.5,205.5 C 1150.04,208.865 1150.71,212.531 1150.5,216.5C 1150.5,219.355 1150.16,222.022 1149.5,224.5C 1149.65,218.131 1149.32,211.797 1148.5,205.5 Z"/></g>
<g><path style="opacity:1" fill="#addee1" d="M 740.5,234.5 C 754.167,234.5 767.833,234.5 781.5,234.5C 781.831,256.34 781.497,278.006 780.5,299.5C 780.5,278.167 780.5,256.833 780.5,235.5C 766.99,235.829 753.656,235.496 740.5,234.5 Z"/></g>
<g><path style="opacity:1" fill="#219aab" d="M 568.5,252.5 C 575.196,251.849 581.529,253.015 587.5,256C 592.624,261.374 593.791,267.54 591,274.5C 586.646,280.354 581.48,285.354 575.5,289.5C 581.861,296.193 588.194,302.86 594.5,309.5C 597.33,303.199 598.663,296.533 598.5,289.5C 601.5,289.5 604.5,289.5 607.5,289.5C 607.285,298.91 605.285,307.91 601.5,316.5C 603.942,320.117 606.609,323.617 609.5,327C 606.167,327.667 602.833,327.667 599.5,327C 598.275,325.437 596.775,324.27 595,323.5C 582.23,332.525 569.397,332.692 556.5,324C 548.734,314.734 548.568,305.234 556,295.5C 558.376,292.955 560.876,290.622 563.5,288.5C 560.829,285.163 558.663,281.496 557,277.5C 553.879,265.751 557.712,257.418 568.5,252.5 Z"/></g>
<g><path style="opacity:1" fill="#7fc7d0" d="M 1123.5,258.5 C 1111.5,258.5 1099.5,258.5 1087.5,258.5C 1087.5,273.5 1087.5,288.5 1087.5,303.5C 1086.5,288.342 1086.17,273.009 1086.5,257.5C 1099.01,257.171 1111.34,257.505 1123.5,258.5 Z"/></g>
<g><path style="opacity:1" fill="#fdfefe" d="M 1123.5,258.5 C 1139.19,261.857 1145.36,271.524 1142,287.5C 1139.19,296.643 1133.02,301.81 1123.5,303C 1111.5,303.5 1099.5,303.667 1087.5,303.5C 1087.5,288.5 1087.5,273.5 1087.5,258.5C 1099.5,258.5 1111.5,258.5 1123.5,258.5 Z"/></g>
<g><path style="opacity:1" fill="#fafcfd" d="M 570.5,260.5 C 582.309,258.801 586.142,263.467 582,274.5C 578.903,278.27 575.236,281.27 571,283.5C 565.356,277.854 564.022,271.188 567,263.5C 568.518,262.837 569.685,261.837 570.5,260.5 Z"/></g>
<g><path style="opacity:1" fill="#94d0d8" d="M 1012.5,263.5 C 1013.43,264.568 1013.77,265.901 1013.5,267.5C 1000.17,267.5 986.833,267.5 973.5,267.5C 973.263,266.209 973.596,265.209 974.5,264.5C 986.789,266.48 999.456,267.147 1012.5,266.5C 1012.5,265.5 1012.5,264.5 1012.5,263.5 Z"/></g>
<g><path style="opacity:1" fill="#f8fcfc" d="M 567.5,294.5 C 575.578,301.073 583.245,308.24 590.5,316C 584.457,322.216 577.124,324.216 568.5,322C 560.963,317.968 558.463,311.802 561,303.5C 562.686,300.117 564.853,297.117 567.5,294.5 Z"/></g>
</svg>
